<svg xmlns="http://www.w3.org/2000/svg" xmlns:xlink="http://www.w3.org/1999/xlink">
    <g id="logo">
        <path id="POVZRASLELYA&gt;DEV" d="M282.972 18.9429L275.677 33.042L275.677 40L270.55 40L270.55 33.042L263.262 18.9429L269.078 18.9429L273.157 27.7612L277.208 18.9429L282.972 18.9429ZM298.151 36.2793L290.292 36.2793L289.032 40L283.663 40L291.281 18.9429L297.221 18.9429L304.838 40L299.41 40L298.151 36.2793ZM296.832 32.3169L294.218 24.6118L291.639 32.3169L296.832 32.3169Z" fill="#379687" fill-opacity="1.000000" fill-rule="evenodd"/>
        <path id="POVZRASLELYA&gt;DEV" d="M93.9077 25.7178Q93.9077 27.5488 93.0654 29.0649Q92.2305 30.5811 90.4873 31.5112Q88.7515 32.4414 86.1733 32.4414L82.9873 32.4414L82.9873 40L77.8604 40L77.8604 18.9429L86.1733 18.9429Q88.6929 18.9429 90.4287 19.8145Q92.1719 20.6787 93.0361 22.2095Q93.9077 23.7402 93.9077 25.7178ZM85.7778 28.3618Q87.25 28.3618 87.9678 27.6733Q88.6929 26.9775 88.6929 25.7178Q88.6929 24.458 87.9678 23.7695Q87.25 23.0811 85.7778 23.0811L82.9873 23.0811L82.9873 28.3618L85.7778 28.3618ZM106.541 40.2124Q103.568 40.2124 101.092 38.8354Q98.6165 37.4512 97.159 34.9756Q95.7088 32.5 95.7088 29.4092Q95.7088 26.3184 97.159 23.8574Q98.6165 21.3965 101.092 20.0195Q103.568 18.6426 106.541 18.6426Q109.508 18.6426 111.983 20.0195Q114.459 21.3965 115.88 23.8574Q117.308 26.3184 117.308 29.4092Q117.308 32.5 115.865 34.9756Q114.429 37.4512 111.969 38.8354Q109.508 40.2124 106.541 40.2124ZM106.541 35.5322Q109.061 35.5322 110.577 33.855Q112.093 32.1704 112.093 29.4092Q112.093 26.6187 110.577 24.9561Q109.061 23.2935 106.541 23.2935Q103.992 23.2935 102.476 24.9414Q100.96 26.5894 100.96 29.4092Q100.96 32.1997 102.476 33.8696Q103.992 35.5322 106.541 35.5322ZM139.928 18.9429L132.458 40L126.042 40L118.571 18.9429L124.028 18.9429L129.25 34.8364L134.501 18.9429L139.928 18.9429ZM147.517 35.8032L156.577 35.8032L156.577 40L141.701 40L141.701 36.1035L150.703 23.1396L141.701 23.1396L141.701 18.9429L156.577 18.9429L156.577 22.8394L147.517 35.8032ZM170.678 40L166.298 32.0532L165.067 32.0532L165.067 40L159.94 40L159.94 18.9429L168.554 18.9429Q171.037 18.9429 172.794 19.8145Q174.552 20.6787 175.416 22.1948Q176.288 23.7109 176.288 25.5713Q176.288 27.6733 175.101 29.3213Q173.922 30.9692 171.608 31.6577L176.471 40L170.678 40ZM165.067 28.4204L168.253 28.4204Q169.66 28.4204 170.363 27.7319Q171.073 27.0435 171.073 25.7764Q171.073 24.5825 170.363 23.894Q169.66 23.1982 168.253 23.1982L165.067 23.1982L165.067 28.4204ZM192.611 36.2793L184.752 36.2793L183.492 40L178.123 40L185.741 18.9429L191.681 18.9429L199.298 40L193.87 40L192.611 36.2793ZM191.292 32.3169L188.678 24.6118L186.099 32.3169L191.292 32.3169ZM209.228 40.2124Q206.92 40.2124 205.089 39.4653Q203.258 38.7109 202.16 37.2388Q201.068 35.7666 201.01 33.7012L206.474 33.7012Q206.591 34.873 207.279 35.4883Q207.968 36.1035 209.081 36.1035Q210.224 36.1035 210.883 35.5762Q211.542 35.0488 211.542 34.1187Q211.542 33.3423 211.015 32.8296Q210.487 32.3169 209.718 31.9873Q208.957 31.6577 207.55 31.2402Q205.507 30.6104 204.218 29.9805Q202.929 29.3506 201.999 28.1201Q201.068 26.8896 201.068 24.9121Q201.068 21.9678 203.2 20.3052Q205.331 18.6426 208.751 18.6426Q212.23 18.6426 214.362 20.3052Q216.493 21.9678 216.64 24.9414L211.088 24.9414Q211.029 23.9233 210.341 23.3374Q209.652 22.7515 208.568 22.7515Q207.638 22.7515 207.067 23.2495Q206.503 23.7402 206.503 24.6704Q206.503 25.6885 207.462 26.2598Q208.422 26.8311 210.458 27.4902Q212.501 28.1787 213.776 28.8086Q215.05 29.4385 215.98 30.6396Q216.911 31.8408 216.911 33.7305Q216.911 35.5322 215.995 37.0044Q215.08 38.4692 213.336 39.3408Q211.601 40.2124 209.228 40.2124ZM225.187 36.0376L231.911 36.0376L231.911 40L220.06 40L220.06 18.9429L225.187 18.9429L225.187 36.0376ZM239.497 23.0518L239.497 27.3071L246.367 27.3071L246.367 31.2695L239.497 31.2695L239.497 35.8911L247.268 35.8911L247.268 40L234.37 40L234.37 18.9429L247.268 18.9429L247.268 23.0518L239.497 23.0518ZM255.727 36.0376L262.451 36.0376L262.451 40L250.6 40L250.6 18.9429L255.727 18.9429L255.727 36.0376Z" fill="#FFFFFF" fill-opacity="1.000000" fill-rule="evenodd"/>
        <circle id="Ellipse 3" cx="27.500000" cy="27.500000" r="27.500000" fill="#379687" fill-opacity="1.000000"/>
        <path id="R" d="M39.1484 23.5425Q39.1484 25.8667 38.0889 27.6953Q37.0293 29.5239 35.0554 30.5237Q33.0815 31.5234 30.3643 31.5234L24.3828 31.5234L24.3828 40L19.3413 40L19.3413 15.9204L30.1592 15.9204Q34.4829 15.9204 36.8157 17.9114Q39.1484 19.9023 39.1484 23.5425ZM34.0728 23.6279Q34.0728 19.834 29.5952 19.834L24.3828 19.834L24.3828 27.644L29.7319 27.644Q31.8169 27.644 32.9448 26.6101Q34.0728 25.5762 34.0728 23.6279Z" fill="#FFFFFF" fill-opacity="1.000000" fill-rule="evenodd"/>
    </g>


    <g id="html">
        <defs>
            <clipPath id="clip6_121">
                <rect id="svg" width="128.000000" height="128.000000" fill="white" fill-opacity="0"/>
            </clipPath>
        </defs>
        <g clip-path="url(#clip6_121)">
            <path id="path" d="M9.03198 2L19.037 114.093L63.933 126.494L108.953 114.107L118.968 2L9.03198 2ZM98.158 28.5389L97.531 35.7109L97.255 39L44.59 39L45.847 53L96.003 53L95.667 56.4709L92.434 92.59L92.196 94.86L64 102.609L35.789 95.2061L33.876 74L47.691 74L48.67 84.9189L63.957 89L64 88.454L79.355 84.579L80.959 67L33.261 67L29.878 28.8829L29.549 25L98.488 25L98.158 28.5389Z" fill="#F0F8FF" fill-opacity="1.000000" fill-rule="nonzero"/>
        </g>
    </g>

    <g id="css">
        <defs>
            <clipPath id="clip6_39">
                <rect id="svg" width="128.000000" height="128.000000" fill="white" fill-opacity="0"/>
            </clipPath>
        </defs>
        <g clip-path="url(#clip6_39)">
            <path id="path" d="M8.76001 1L18.815 113.883L63.933 126.463L109.177 113.837L119.24 1L8.76001 1ZM98.351 26.8621L95.004 64.467L95.014 64.67L95 65.137L92.622 91.427L92.36 93.7629L64 101.607L35.667 93.739L33.75 72L47.633 72L48.618 83.054L64.004 87.224L79.443 83.001L81.075 65L48.792 65L48.515 61.957L47.884 54.828L47.553 51L82.302 51L83.566 37L30.64 37L30.363 33.959L29.733 26.828L29.401 23L98.682 23L98.351 26.8621Z" fill="#F0F8FF" fill-opacity="1.000000" fill-rule="nonzero"/>
        </g>
    </g>


    <g id="js">
        <defs/>
        <path id="path" d="M0 0L0 125L125 125L125 0L0 0ZM66.119 106.513C64.274 110.262 60.752 112.725 56.671 113.914C50.4 115.354 44.402 114.533 39.94 111.855C36.954 110.023 34.622 107.203 33.039 103.954L42.559 98.124C42.642 98.1591 42.892 98.611 43.226 99.1949C44.44 101.229 45.487 102.669 47.545 103.68C49.567 104.37 54.006 104.811 55.72 101.253C56.767 99.443 56.434 93.625 56.434 87.188C56.433 77.073 56.48 67 56.48 57L68.189 57C68.189 68 68.249 78.418 68.189 89.152C68.214 95.7319 68.785 101.598 66.119 106.513ZM114.693 103.205C110.623 117.127 87.931 117.579 78.863 108.381C76.947 106.216 75.746 105.085 74.603 102.586C79.422 99.814 79.422 99.814 84.111 97.101C86.658 101.016 89.013 103.169 93.25 104.05C98.998 104.752 104.781 102.777 103.484 96.672C102.151 91.686 91.714 90.473 84.611 85.141C77.4 80.298 75.71 68.53 81.636 61.806C83.611 59.319 86.979 57.463 90.513 56.571L94.201 56.094C101.282 55.951 105.708 57.821 108.957 61.449C109.861 62.365 110.599 63.353 111.979 65.494C108.207 67.8979 108.219 67.875 102.816 71.373C101.662 68.887 99.747 67.327 97.723 66.649C94.581 65.697 90.619 66.7321 89.797 70.052C89.512 71.075 89.571 72.027 90.024 73.717C91.297 76.62 95.569 77.882 99.401 79.6431C110.432 84.1169 114.157 88.9141 115.073 94.624C115.955 99.54 114.86 102.729 114.693 103.205Z" fill="#F0F8FF" fill-opacity="1.000000" fill-rule="nonzero"/>                              
    </g>

    <g id="sass">
        <defs>
            <clipPath id="clip6_37">
                <rect id="svg" width="128.000000" height="128.000000" fill="white" fill-opacity="0"/>
            </clipPath>
        </defs>
        <g clip-path="url(#clip6_37)">
            <path id="path" d="M1.21899 56.156C1.21899 56.859 1.42599 57.323 1.54199 57.774C2.29799 60.707 3.92299 63.224 5.851 65.52C8.597 68.792 11.96 71.426 15.405 73.9031C18.393 76.051 21.442 78.151 24.442 80.283C24.957 80.649 25.444 81.0701 26.003 81.519C25.522 81.7791 25.122 82.0081 24.706 82.219C20.747 84.2271 16.938 86.478 13.427 89.2051C11.311 90.849 9.265 92.5961 7.81999 94.879C5.495 98.551 4.672 102.463 6.405 106.64C6.911 107.86 7.683 108.914 8.77199 109.693C9.125 109.945 9.521 110.195 9.93399 110.293C10.992 110.542 12.07 110.705 13.141 110.902L16.174 110.9C19.528 110.601 22.581 109.452 25.34 107.548C29.652 104.572 32.557 100.582 33.806 95.4611C34.714 91.739 34.751 88.0131 33.681 84.308C33.582 83.964 33.457 83.6271 33.327 83.2941C33.197 82.9611 33.044 82.6371 32.864 82.222L39.74 78.2681L39.843 78.3561C39.718 78.765 39.585 79.173 39.472 79.5861C38.655 82.5701 38.112 85.6061 38.307 88.703C38.515 92.0031 39.436 95.092 41.368 97.849C42.93 100.079 46.652 100.162 48.312 97.9241C48.901 97.129 49.472 96.298 49.901 95.411C51.022 93.0961 52.06 90.74 53.131 88.4L53.318 87.972C53.241 89.0801 53.151 90.053 53.11 91.027C53.046 92.548 53.135 94.0601 53.655 95.5071C54.1 96.745 54.857 97.67 56.275 97.833C57.245 97.944 58.018 97.5 58.731 96.937C59.845 96.058 60.75 94.972 61.422 93.738C63.323 90.2471 65.275 86.777 66.998 83.198C68.862 79.327 70.492 75.343 72.223 71.406L72.509 70.708C72.918 72.3151 73.203 73.889 73.728 75.379C74.338 77.108 75.093 78.796 75.915 80.437C76.304 81.212 76.259 81.715 75.72 82.365C73.464 85.085 71.247 87.838 69.028 90.588C68.537 91.1951 68.048 91.813 67.639 92.4761C67.392 92.879 67.228 93.37 67.159 93.84C67.026 94.738 67.581 95.604 68.542 95.811C69.42 96 70.355 96.0701 71.25 96.004C74.347 95.776 77.159 94.689 79.645 92.847C82.866 90.4611 83.9 87.2051 83.12 83.3461C82.909 82.2991 82.536 81.281 82.173 80.272C82.01 79.817 81.999 79.498 82.296 79.074C84.871 75.397 87.071 71.496 89.117 67.505C89.198 67.348 89.281 67.191 89.423 67.0231C90.086 70.473 91.084 73.798 92.872 76.8151C91.96 77.694 91.057 78.491 90.24 79.369C88.441 81.303 86.881 83.4031 86.067 85.964C85.717 87.068 85.448 88.1901 85.604 89.369C85.846 91.2001 87.346 92.39 89.147 91.973C93.001 91.0811 96.328 89.265 98.759 86.048C100.395 83.882 100.544 81.4661 99.859 78.9351C99.671 78.2471 99.448 77.5701 99.208 76.781C100.159 76.486 101.086 76.132 102.045 75.913C107.024 74.777 111.949 74.975 116.747 76.7731C119.548 77.823 121.811 79.58 123.153 82.344C124.792 85.723 123.886 88.929 120.701 91.0651C120.404 91.264 120.064 91.421 119.818 91.67C119.667 91.823 119.576 92.129 119.613 92.34C119.634 92.463 119.959 92.6171 120.146 92.615C121.193 92.6071 122.042 92.058 122.857 91.494C124.899 90.0811 126.389 88.1801 126.71 85.677L126.773 85.489L126.696 83.859C126.665 83.765 126.719 83.672 126.712 83.6011C126.278 79.9561 124.331 77.129 121.499 74.913C118.219 72.348 114.346 71.292 110.25 71.125C106.912 70.989 103.631 71.485 100.485 72.6281C99.588 72.953 98.699 73.338 97.797 73.701C97.676 73.4821 97.546 73.272 97.439 73.0551C96.513 71.1591 95.391 69.347 95.143 67.173C94.967 65.629 94.751 64.087 95.118 62.5601C95.471 61.0911 95.931 59.647 96.364 58.198C96.587 57.452 96.43 57.0341 95.718 56.698C95.47 56.5811 95.2 56.479 94.932 56.4401C93.182 56.186 91.456 56.3311 89.761 56.824C89.161 56.999 88.725 57.335 88.592 57.999C88.516 58.38 88.361 58.745 88.253 59.121C87.81 60.684 87.496 62.277 86.78 63.766C84.986 67.501 82.938 71.095 80.842 74.663C80.615 75.048 80.376 75.426 80.09 75.8931C79.354 74.353 78.569 72.9711 78.331 71.3511C78.062 69.519 77.85 67.6901 78.306 65.8721C78.645 64.516 79.088 63.1851 79.496 61.847C79.689 61.2111 79.6 60.877 79.024 60.542C78.733 60.373 78.404 60.223 78.076 60.1741C76.261 59.905 74.473 60.046 72.722 60.6121C72.179 60.788 71.894 61.139 71.728 61.699C71.24 63.3511 70.824 65.043 70.139 66.614C67.365 72.974 64.511 79.301 61.66 85.627C61.065 86.948 60.368 88.223 59.697 89.509C59.527 89.835 59.279 90.1221 59.067 90.428C58.897 90.2271 58.831 90.089 58.832 89.951C58.837 89.1381 58.74 88.301 58.895 87.515C59.364 85.137 59.904 82.772 60.473 80.416C60.943 78.47 61.49 76.542 62.011 74.609C62.186 73.962 62.189 73.3571 61.724 72.813C60.943 71.902 59.311 71.702 58.343 72.4041L57.915 72.646L57.998 71.9561C58.202 70.4771 58.243 69.0031 57.837 67.546C57.331 65.73 56.035 64.6851 54.151 64.743C53.273 64.77 52.351 64.92 51.538 65.24C48.119 66.58 45.49 68.953 43.252 71.808C43.049 72.067 42.781 72.303 42.495 72.462C39.602 74.066 36.7 75.65 33.799 77.24L30.57 79.009C29.704 78.183 28.917 77.326 28.024 76.599C25.297 74.375 22.526 72.2061 19.78 70.007C17.346 68.058 14.988 66.028 13.184 63.447C11.842 61.527 10.977 59.426 10.894 57.052C10.789 54.027 11.647 51.2629 13.187 48.6899C15.157 45.3979 17.844 42.756 20.798 40.363C23.923 37.833 27.303 35.6851 30.806 33.724C35.707 30.981 40.748 28.553 46.153 26.95C51.695 25.306 57.318 24.365 63.118 25.021C65.398 25.2791 67.612 25.801 69.645 26.916C71.202 27.769 72.479 28.886 73.073 30.632C73.659 32.35 73.641 34.0909 73.235 35.8361C72.41 39.37 70.475 42.283 68.04 44.886C64.046 49.153 59.174 52.058 53.689 53.9771C50.524 55.084 47.268 55.7791 43.924 56.0601C41.195 56.2891 38.523 56.047 35.939 55.098C34.228 54.469 32.738 53.507 31.54 52.111C31.326 51.861 31.052 51.59 30.653 51.824C30.262 52.054 30.193 52.426 30.324 52.803C30.543 53.429 30.745 54.0811 31.086 54.641C31.943 56.046 33.193 57.0649 34.569 57.939C37.212 59.62 40.166 60.1851 43.229 60.316C47.877 60.517 52.412 59.823 56.883 58.576C63.266 56.796 68.816 53.652 73.267 48.692C76.973 44.562 79.62 39.901 80.187 34.2729C80.464 31.526 80.169 28.835 78.883 26.329C77.488 23.614 75.27 21.595 72.618 20.204C68.756 18.179 64.588 17 60.286 17L55.976 17C50.766 17 45.729 18.493 40.833 20.274C37.127 21.623 33.493 23.215 29.965 24.9771C22.282 28.816 15.127 33.4449 9.24998 39.8101C6.32198 42.981 3.84297 46.48 2.41698 50.6C1.99998 51.806 1.60397 53.099 1.30598 54.3459L1.21899 56.156ZM29.145 90.359C28.812 94.818 26.791 98.433 23.488 101.361C21.63 103.007 19.499 104.179 17.017 104.591C16.117 104.74 15.196 104.776 14.323 104.403C13.078 103.871 12.799 102.766 12.775 101.589C12.738 99.713 13.395 98.017 14.296 96.403C15.472 94.299 17.196 92.6949 19.037 91.197C21.937 88.8359 25.083 86.838 28.305 84.952L28.548 84.8521C29.046 86.692 29.283 88.509 29.145 90.359ZM54.303 70.98C54.068 72.4041 53.774 73.829 53.358 75.209C51.92 79.986 50.073 84.615 48.076 89.182C47.707 90.027 47.17 90.798 46.703 91.599C46.631 91.723 46.524 91.83 46.42 91.933C45.842 92.504 45.294 92.474 45.002 91.7271C44.662 90.859 44.453 89.9301 44.273 89.011C44.152 88.394 44.181 87.746 44.143 87.114C44.182 82.62 45.553 78.536 47.879 74.734C48.838 73.166 49.882 71.672 51.477 70.6801C51.967 70.375 52.517 70.13 53.072 69.974C53.922 69.735 54.444 70.1281 54.303 70.98ZM71.467 92.848L77.636 85.645C77.893 88.3199 73.346 93.66 71.467 92.848ZM91.17 88.001C90.734 88.251 90.259 88.431 89.812 88.662C89.403 88.874 89.268 88.66 89.256 88.308C89.248 88.069 89.283 87.819 89.349 87.587C90.182 84.649 91.715 82.141 93.996 80.101L94.156 80.019C95.241 83.054 93.987 86.387 91.17 88.001Z" fill="#F0F8FF" fill-opacity="1.000000" fill-rule="nonzero"/>
        </g>
    </g>

    <g id="bootstrap">
        <defs>
            <clipPath id="clip6_41">
                <rect id="svg" width="128.000000" height="128.000000" fill="white" fill-opacity="0"/>
            </clipPath>
        </defs>
        <g clip-path="url(#clip6_41)">
            <path id="path" d="M75.701 65.603C73.367 64.835 70.007 65 65.621 65L48 65L48 88L66.844 88C69.788 88 71.856 87.6851 73.047 87.465C75.146 87.089 76.901 86.361 78.311 85.483C79.72 84.6069 80.879 83.278 81.789 81.6021C82.697 79.926 83.152 77.965 83.152 75.772C83.152 73.204 82.494 71.2319 81.177 69.3359C79.861 67.4399 78.036 66.371 75.701 65.603ZM73.282 55.087C75.599 54.399 77.346 53.197 78.521 51.6C79.697 50.002 80.284 47.969 80.284 45.556C80.284 43.27 79.735 41.2419 78.638 39.502C77.541 37.762 75.976 37.089 73.939 36.446C71.902 35.8051 68.409 36 63.459 36L48 36L48 56L64.587 56C68.629 56 71.526 55.62 73.282 55.087ZM126 18.625C126 9.44299 118.557 2 109.375 2L17.625 2C8.44299 2 1 9.44299 1 18.625L1 110.375C1 119.557 8.44299 127 17.625 127L109.375 127C118.557 127 126 119.557 126 110.375L126 18.625ZM90.553 84.745C89.191 87.5181 87.506 89.656 85.501 91.16C83.495 92.6641 80.98 93.9399 77.957 94.708C74.935 95.4771 71.229 96 66.844 96L39 96L39 27L66.42 27C71.684 27 75.905 27.609 79.085 29.002C82.266 30.397 84.756 32.499 86.559 35.397C88.36 38.295 89.261 41.304 89.261 44.468C89.261 47.413 88.461 50.176 86.864 52.776C85.266 55.3781 82.853 57.47 79.627 59.068C83.793 60.29 86.997 62.3719 89.237 65.316C91.477 68.261 92.597 71.738 92.597 75.748C92.597 78.975 91.916 81.973 90.553 84.745Z" fill="#F0F8FF" fill-opacity="1.000000" fill-rule="nonzero"/>
        </g>
    </g>
    <g id="vscode">
        <defs>
            <clipPath id="clip6_47">
                <rect id="svg" width="128.000000" height="128.000000" fill="white" fill-opacity="0"/>
            </clipPath>
        </defs>
        <g clip-path="url(#clip6_47)">
            <path id="path" d="M95 2.30005L125.5 14.6001L125.5 113.3L94.8 125.7L45.8 77L14.8 101.1L2.5 94.9L2.5 33.1001L14.8 27.2001L45.8 51.5L95 2.30005ZM14.8 45.7001L14.8 83.2001L33.3 64.2001L14.8 45.7001ZM62.9 64.2001L94.8 89.3L94.8 39L62.9 64.2001Z" fill="#F0F8FF" fill-opacity="1.000000" fill-rule="nonzero"/>
        </g>
    </g>
    <g id="git">
        <defs>
            <clipPath id="clip6_45">
                <rect id="svg" width="128.000000" height="128.000000" fill="white" fill-opacity="0"/>
            </clipPath>
        </defs>
        <g clip-path="url(#clip6_45)">
            <path id="path" d="M124.737 58.3781L69.621 3.26404C66.449 0.0900879 61.301 0.0900879 58.124 3.26404L46.68 14.7101L61.198 29.228C64.573 28.089 68.441 28.853 71.13 31.542C73.833 34.248 74.591 38.149 73.424 41.535L87.416 55.5281C90.801 54.3611 94.708 55.115 97.41 57.823C101.19 61.6001 101.19 67.723 97.41 71.5021C93.63 75.282 87.509 75.282 83.727 71.5021C80.885 68.6581 80.182 64.483 81.622 60.9811L68.574 47.9331L68.572 82.274C69.494 82.729 70.363 83.337 71.131 84.1021C74.909 87.879 74.909 94 71.131 97.785C67.352 101.562 61.227 101.562 57.452 97.785C53.674 94.0011 53.674 87.88 57.452 84.1021C58.386 83.1691 59.466 82.4641 60.619 81.9921L60.619 47.333C59.466 46.8611 58.388 46.161 57.452 45.222C54.59 42.3621 53.901 38.1621 55.369 34.646L41.056 20.333L3.26401 58.123C0.0890045 61.3 0.0890045 66.448 3.26401 69.623L58.381 124.737C61.555 127.911 66.701 127.911 69.88 124.737L124.738 69.879C127.912 66.703 127.912 61.552 124.737 58.3781Z" fill="#F0F8FF" fill-opacity="1.000000" fill-rule="nonzero"/>
        </g>
    </g>
    <g id="figma">
        <defs>
            <clipPath id="clip6_51">
                <rect id="svg" width="96.000000" height="128.000000" fill="white" fill-opacity="0"/>
            </clipPath>
        </defs>
        <g clip-path="url(#clip6_51)">
            <path id="path" d="M69.25 42.675C69.9488 42.675 70.646 42.6407 71.3414 42.5723C72.0369 42.5038 72.7273 42.4014 73.4127 42.265C74.0981 42.1287 74.7752 41.9591 75.4439 41.7562C76.1127 41.5533 76.7698 41.3182 77.4155 41.0508C78.0611 40.7833 78.6921 40.4849 79.3084 40.1555C79.9247 39.826 80.5234 39.4673 81.1044 39.079C81.6855 38.6907 82.2461 38.2749 82.7863 37.8317C83.3265 37.3883 83.8437 36.9196 84.3379 36.4254C84.832 35.9313 85.3007 35.4141 85.7441 34.8739C86.1874 34.3336 86.6032 33.7731 86.9914 33.192C87.3797 32.611 87.7385 32.0122 88.068 31.3959C88.3974 30.7797 88.6958 30.1487 88.9632 29.5031C89.2307 28.8574 89.4658 28.2002 89.6687 27.5315C89.8715 26.8627 90.0411 26.1857 90.1775 25.5002C90.3138 24.8148 90.4162 24.1244 90.4847 23.429C90.5532 22.7335 90.5875 22.0364 90.5875 21.3375C90.5875 20.6387 90.5532 19.9415 90.4847 19.2461C90.4162 18.5505 90.3138 17.8601 90.1775 17.1748C90.0411 16.4894 89.8715 15.8123 89.6687 15.1436C89.4658 14.4749 89.2307 13.8176 88.9632 13.172C88.6958 12.5264 88.3974 11.8954 88.068 11.2791C87.7385 10.6627 87.3797 10.0641 86.9914 9.48303C86.6032 8.90198 86.1874 8.34131 85.7441 7.80115C85.3007 7.26099 84.832 6.74377 84.3379 6.24963C83.8437 5.75549 83.3265 5.28674 82.7863 4.84338C82.2461 4.40002 81.6855 3.98425 81.1044 3.59607C80.5234 3.20776 79.9247 2.84888 79.3084 2.51953C78.6921 2.19006 78.0611 1.8916 77.4155 1.62427C76.7698 1.35681 76.1127 1.1217 75.4439 0.918823C74.7752 0.715942 74.0981 0.546387 73.4127 0.410034C72.7273 0.273682 72.0369 0.171265 71.3414 0.102783C70.646 0.0343018 69.9488 0 69.25 0L26.575 0C25.8766 0 25.1798 0.0341797 24.4848 0.102661C23.7897 0.171143 23.0997 0.27356 22.4147 0.40979C21.7297 0.546021 21.053 0.715454 20.3846 0.918213C19.7163 1.12097 19.0595 1.35596 18.4142 1.62329C17.769 1.8905 17.1384 2.18884 16.5224 2.51807C15.9065 2.84729 15.3082 3.20593 14.7274 3.59387C14.1467 3.98193 13.5864 4.39746 13.0465 4.84058C12.5066 5.28357 11.9898 5.75208 11.4959 6.24597C11.0021 6.73975 10.5336 7.25671 10.0905 7.79651C9.64745 8.33643 9.2319 8.89673 8.84388 9.47742C8.45586 10.0582 8.09723 10.6565 7.768 11.2725C7.43877 11.8884 7.14051 12.519 6.87324 13.1643C6.60596 13.8096 6.37096 14.4663 6.16822 15.1346C5.96548 15.803 5.79598 16.4797 5.65973 17.1647C5.52347 17.8497 5.42111 18.5397 5.35265 19.2347C5.2842 19.9298 5.24997 20.6266 5.24997 21.325C5.24997 22.0234 5.2842 22.7202 5.35265 23.4152C5.42111 24.1102 5.52347 24.8003 5.65973 25.4854C5.79598 26.1703 5.96548 26.8469 6.16822 27.5153C6.37096 28.1837 6.60596 28.8405 6.87324 29.4857C7.14051 30.131 7.43877 30.7616 7.768 31.3776C8.09723 31.9935 8.45586 32.5918 8.84388 33.1725C9.2319 33.7533 9.64745 34.3136 10.0905 34.8534C10.5336 35.3933 11.0021 35.9102 11.4959 36.4041C11.9898 36.8979 12.5066 37.3663 13.0465 37.8094C13.5864 38.2526 14.1467 38.6681 14.7274 39.056C15.3082 39.4441 15.9065 39.8027 16.5224 40.132C17.1384 40.4612 17.769 40.7594 18.4142 41.0267C19.0595 41.2939 19.7163 41.5291 20.3846 41.7317C21.053 41.9344 21.7297 42.104 22.4147 42.2402C23.0997 42.3765 23.7897 42.4789 24.4848 42.5474C25.1798 42.6157 25.8766 42.65 26.575 42.65C25.8764 42.6504 25.1794 42.6849 24.4842 42.7537C23.789 42.8225 23.0988 42.9252 22.4137 43.0618C21.7286 43.1984 21.0518 43.3682 20.3833 43.5713C19.7149 43.7743 19.058 44.0096 18.4127 44.2772C17.7673 44.5448 17.1367 44.8434 16.5206 45.1729C15.9046 45.5024 15.3063 45.8613 14.7255 46.2496C14.1447 46.6379 13.5844 47.0537 13.0445 47.4971C12.5046 47.9404 11.9877 48.4092 11.4938 48.9033C10.9999 49.3975 10.5315 49.9146 10.0884 50.4547C9.64531 50.9948 9.22976 51.5553 8.84174 52.1362C8.45371 52.7172 8.09509 53.3158 7.76586 53.9319C7.43663 54.5481 7.13838 55.179 6.87111 55.8243C6.60384 56.4698 6.36884 57.1268 6.16611 57.7954C5.96337 58.464 5.79388 59.1409 5.65763 59.826C5.52138 60.5112 5.41903 61.2014 5.35057 61.8967C5.28212 62.5919 5.24789 63.2889 5.24789 63.9875C5.24789 64.6862 5.28212 65.3831 5.35057 66.0782C5.41903 66.7736 5.52138 67.4637 5.65763 68.1489C5.79388 68.8341 5.96337 69.511 6.16611 70.1796C6.36884 70.8481 6.60384 71.5051 6.87111 72.1506C7.13838 72.796 7.43663 73.4269 7.76586 74.0431C8.09509 74.6592 8.45371 75.2578 8.84174 75.8387C9.22976 76.4197 9.64531 76.9802 10.0884 77.5204C10.5315 78.0604 10.9999 78.5776 11.4938 79.0717C11.9877 79.5658 12.5046 80.0345 13.0445 80.4779C13.5844 80.9213 14.1447 81.337 14.7255 81.7253C15.3063 82.1136 15.9046 82.4725 16.5206 82.8021C17.1367 83.1316 17.7673 83.4302 18.4127 83.6978C19.058 83.9653 19.7149 84.2007 20.3833 84.4037C21.0518 84.6068 21.7286 84.7766 22.4137 84.9132C23.0988 85.0498 23.789 85.1525 24.4842 85.2213C25.1794 85.29 25.8764 85.3247 26.575 85.325C25.8761 85.3246 25.179 85.3584 24.4835 85.4265C23.788 85.4946 23.0975 85.5967 22.412 85.7325C21.7265 85.8685 21.0493 86.0377 20.3805 86.2401C19.7116 86.4426 19.0543 86.6774 18.4085 86.9445C17.7627 87.2115 17.1316 87.5095 16.5151 87.8386C15.8986 88.1677 15.2997 88.5261 14.7184 88.9141C14.1371 89.302 13.5762 89.7174 13.0358 90.1604C12.4953 90.6035 11.9779 91.0719 11.4834 91.5658C10.989 92.0596 10.5199 92.5765 10.0763 93.1165C9.63264 93.6564 9.21653 94.2168 8.82794 94.7976C8.43935 95.3784 8.08016 95.9769 7.75037 96.593C7.42059 97.2091 7.12179 97.84 6.85398 98.4855C6.58617 99.1309 6.35064 99.788 6.14739 100.457C5.94414 101.125 5.77415 101.802 5.63741 102.488C5.50068 103.173 5.39785 103.863 5.32895 104.559C5.26004 105.254 5.22539 105.951 5.22498 106.65C5.22457 107.349 5.25841 108.046 5.3265 108.741C5.39459 109.437 5.4966 110.127 5.63253 110.813C5.76847 111.498 5.93767 112.176 6.14014 112.844C6.3426 113.513 6.57736 114.171 6.84441 114.816C7.11147 115.462 7.40953 116.093 7.73859 116.71C8.06765 117.326 8.42614 117.925 8.81405 118.507C9.20196 119.088 9.61742 119.649 10.0604 120.189C10.5035 120.73 10.9719 121.247 11.4657 121.742C11.9596 122.236 12.4765 122.705 13.0164 123.149C13.5564 123.592 14.1168 124.008 14.6976 124.397C15.2784 124.786 15.8769 125.145 16.493 125.475C17.1091 125.804 17.7399 126.103 18.3854 126.371C19.0309 126.639 19.6879 126.874 20.3566 127.078C21.0252 127.281 21.7021 127.451 22.3875 127.588C23.0728 127.724 23.7632 127.827 24.4586 127.896C25.154 127.965 25.8511 128 26.55 128C27.2488 128 27.946 127.967 28.6415 127.898C29.337 127.83 30.0275 127.728 30.7129 127.592C31.3984 127.457 32.0756 127.287 32.7445 127.085C33.4133 126.882 34.0706 126.648 34.7164 126.38C35.3622 126.114 35.9934 125.815 36.6099 125.486C37.2264 125.157 37.8253 124.799 38.4066 124.411C38.9878 124.023 39.5487 123.608 40.0892 123.165C40.6296 122.722 41.1471 122.253 41.6415 121.759C42.136 121.265 42.605 120.748 43.0487 120.208C43.4923 119.669 43.9084 119.108 44.297 118.527C44.6856 117.947 45.0448 117.348 45.3746 116.732C45.7044 116.116 46.0032 115.485 46.271 114.84C46.5388 114.194 46.7743 113.537 46.9776 112.868C47.1808 112.2 47.3508 111.523 47.4875 110.838C47.6243 110.152 47.7271 109.462 47.796 108.766C47.8649 108.071 47.8996 107.374 47.9 106.675L47.9 42.675L69.25 42.675ZM69.25 42.675C68.5516 42.675 67.8548 42.7092 67.1598 42.7777C66.4647 42.8462 65.7747 42.9485 65.0897 43.0847C64.4047 43.2209 63.728 43.3905 63.0596 43.5933C62.3913 43.796 61.7345 44.031 61.0892 44.2982C60.444 44.5656 59.8134 44.8638 59.1974 45.193C58.5815 45.5222 57.9831 45.8809 57.4024 46.2689C56.8217 46.657 56.2614 47.0725 55.7215 47.5155C55.1816 47.9586 54.6648 48.4271 54.1709 48.9209C53.6771 49.4148 53.2086 49.9316 52.7655 50.4716C52.3224 51.0115 51.9069 51.5718 51.5189 52.1525C51.1309 52.7332 50.7722 53.3315 50.443 53.9475C50.1138 54.5635 49.8155 55.194 49.5482 55.8392C49.281 56.4845 49.046 57.1414 48.8432 57.8097C48.6405 58.478 48.471 59.1547 48.3347 59.8397C48.1985 60.5247 48.0961 61.2147 48.0277 61.9098C47.9592 62.6049 47.925 63.3016 47.925 64C47.925 64.6984 47.9592 65.3951 48.0277 66.0902C48.0961 66.7853 48.1985 67.4753 48.3347 68.1603C48.471 68.8453 48.6405 69.522 48.8432 70.1903C49.046 70.8586 49.281 71.5155 49.5482 72.1606C49.8155 72.8059 50.1138 73.4365 50.443 74.0525C50.7722 74.6685 51.1309 75.2668 51.5189 75.8475C51.9069 76.4282 52.3224 76.9885 52.7655 77.5284C53.2086 78.0684 53.6771 78.5852 54.1709 79.0791C54.6648 79.5729 55.1816 80.0414 55.7215 80.4845C56.2614 80.9275 56.8217 81.343 57.4024 81.7311C57.9831 82.1191 58.5815 82.4778 59.1974 82.807C59.8134 83.1362 60.444 83.4344 61.0892 83.7017C61.7345 83.969 62.3913 84.204 63.0596 84.4067C63.728 84.6095 64.4047 84.7789 65.0897 84.9153C65.7747 85.0515 66.4647 85.1538 67.1598 85.2223C67.8548 85.2908 68.5516 85.325 69.25 85.325C69.9484 85.325 70.6451 85.2908 71.3402 85.2223C72.0353 85.1538 72.7253 85.0515 73.4103 84.9153C74.0953 84.7789 74.7719 84.6095 75.4403 84.4067C76.1086 84.204 76.7654 83.969 77.4107 83.7017C78.0559 83.4344 78.6865 83.1362 79.3025 82.807C79.9184 82.4778 80.5168 82.1191 81.0975 81.7311C81.6782 81.343 82.2385 80.9275 82.7784 80.4845C83.3183 80.0414 83.8352 79.5729 84.329 79.0791C84.8229 78.5852 85.2914 78.0684 85.7344 77.5284C86.1775 76.9885 86.593 76.4282 86.9811 75.8475C87.3691 75.2668 87.7277 74.6685 88.0569 74.0525C88.3862 73.4365 88.6844 72.8059 88.9517 72.1606C89.219 71.5155 89.454 70.8586 89.6567 70.1903C89.8595 69.522 90.0289 68.8453 90.1652 68.1603C90.3015 67.4753 90.4038 66.7853 90.4723 66.0902C90.5407 65.3951 90.575 64.6984 90.575 64C90.5748 63.3015 90.5404 62.6047 90.4718 61.9097C90.4032 61.2145 90.3007 60.5244 90.1644 59.8395C90.028 59.1544 89.8584 58.4777 89.6555 57.8093C89.4527 57.141 89.2176 56.4841 88.9503 55.8389C88.6829 55.1936 88.3846 54.563 88.0553 53.947C87.726 53.3312 87.3674 52.7328 86.9793 52.1521C86.5913 51.5714 86.1757 51.0111 85.7326 50.4712C85.2895 49.9314 84.8211 49.4144 84.3272 48.9207C83.8334 48.4268 83.3166 47.9584 82.7767 47.5153C82.2369 47.0723 81.6766 46.6567 81.0959 46.2687C80.5153 45.8807 79.917 45.5221 79.3011 45.1929C78.6852 44.8636 78.0547 44.5654 77.4095 44.2982C76.7644 44.0309 76.1076 43.7959 75.4394 43.5931C74.7711 43.3905 74.0946 43.2209 73.4097 43.0847C72.7247 42.9485 72.0348 42.8462 71.3399 42.7777C70.6449 42.7092 69.9483 42.675 69.25 42.675Z" fill="#F0F8FF" fill-opacity="1.000000" fill-rule="nonzero"/>
        </g>
    </g>
    <g id="react">
        <defs>
            <clipPath id="clip6_33">
                <rect id="svg" width="128.000000" height="128.000000" fill="white" fill-opacity="0"/>
            </clipPath>
        </defs>
        <g clip-path="url(#clip6_33)">
            <path id="path" d="M107.3 45.2C105.1 44.4 102.8 43.6 100.4 42.9C101 40.5 101.5 38.1 101.9 35.7999C104 22.6 101.7 13.2999 95.3 9.69995C93.4 8.59998 91.3 8.09998 88.9 8.09998C81.9 8.09998 73 13.2999 64 22C55 13.2999 46.1 8.09998 39.1 8.09998C36.7 8.09998 34.6 8.59998 32.7 9.69995C26.3 13.4 24 22.7 26.1 35.7999C26.5 38.1 27 40.5 27.6 42.9C25.2 43.6 22.9 44.2999 20.7 45.2C8.20003 50 1.40002 56.6 1.40002 64C1.40002 71.4 8.30002 78 20.7 82.7999C22.9 83.6 25.2 84.4 27.6 85.1C27 87.5 26.5 89.9 26.1 92.2C24 105.4 26.3 114.7 32.7 118.3C34.6 119.4 36.7 119.9 39.1 119.9C46.2 119.9 55.1 114.7 64 106C73 114.7 81.9 119.9 88.9 119.9C91.3 119.9 93.4 119.4 95.3 118.3C101.7 114.6 104 105.3 101.9 92.2C101.5 89.9 101 87.5 100.4 85.1C102.8 84.4 105.1 83.7 107.3 82.7999C119.8 78 126.6 71.4 126.6 64C126.6 56.6 119.8 50 107.3 45.2ZM92.5 14.7C96.6 17.1 98 24.5 96.3 35C96 37.1 95.5 39.2999 94.9 41.6C89.7 40.4 84.2 39.6 78.4 39.1C75 34.2999 71.5 30 68 26.1C75.4 18.7999 82.9 13.7999 89 13.7999C90.3 13.7999 91.5 14.1 92.5 14.7ZM81.3 74C79.5 77.2 77.4 80.4 75.2 83.6C71.5 83.9 67.8 84 64 84C60.1 84 56.4 83.9 52.8 83.6C50.6 80.4 48.6 77.2 46.8 74C44.9 70.7 43.1 67.2999 41.5 64C43.1 60.7 44.9 57.2999 46.8 54C48.6 50.7999 50.7 47.6 52.9 44.4C56.6 44.1 60.3 44 64.1 44C68 44 71.7 44.1 75.3 44.4C77.5 47.6 79.5 50.7999 81.3 54C83.2 57.2999 85 60.7 86.6 64C84.9 67.2999 83.2 70.6 81.3 74ZM89.6 70.7C91.1 74.2 92.3 77.6 93.4 81C90 81.7999 86.4 82.4 82.6 82.9C83.8 81 85.1 79 86.2 76.9C87.4 74.7999 88.5 72.7 89.6 70.7ZM64 97.7999C61.6 95.2 59.3 92.3999 57.1 89.5C59.4 89.6 61.7 89.7 64 89.7C66.3 89.7 68.6 89.6 70.9 89.5C68.7 92.3999 66.4 95.2 64 97.7999ZM45.4 82.7999C41.6 82.2999 38 81.7 34.6 80.8999C35.7 77.6 36.9 74.1 38.4 70.6C39.5 72.6 40.6 74.7 41.8 76.7C43 78.8999 44.2 80.7999 45.4 82.7999ZM38.4 57.2999C36.9 53.7999 35.7 50.4 34.6 47C38 46.2 41.6 45.6 45.4 45.1C44.2 47 42.9 49 41.8 51.1C40.6 53.2 39.5 55.2999 38.4 57.2999ZM64 30.2C66.4 32.7999 68.7 35.6 70.9 38.5C68.6 38.4 66.3 38.2999 64 38.2999C61.7 38.2999 59.4 38.4 57.1 38.5C59.3 35.6 61.6 32.7999 64 30.2ZM86.2 51.2L82.6 45.2C86.4 45.7 90 46.2999 93.4 47.1C92.3 50.4 91.1 53.9 89.6 57.4C88.5 55.2999 87.4 53.2 86.2 51.2ZM31.7 35C30 24.5 31.4 17.1 35.5 14.7C36.5 14.1 37.7 13.7999 39 13.7999C45 13.7999 52.5 18.7 60 26.1C56.5 29.9 53 34.2999 49.6 39.1C43.8 39.6 38.3 40.5 33.1 41.6C32.5 39.2999 32.1 37.1 31.7 35ZM7.00003 64C7.00003 59.2999 12.7 54.2999 22.7 50.6C24.7 49.7999 26.9 49.1 29.1 48.5C30.7 53.5 32.7 58.7999 35.1 64.1C32.7 69.4 30.6 74.6 29.1 79.6C15.3 75.6 7.00003 69.6 7.00003 64ZM35.5 113.3C31.4 110.9 30 103.5 31.7 93C32 90.9 32.5 88.7 33.1 86.4C38.3 87.6 43.8 88.4 49.6 88.9C53 93.7 56.5 98 60 101.9C52.6 109.2 45.1 114.2 39 114.2C37.7 114.2 36.5 113.9 35.5 113.3ZM96.3 93C98 103.5 96.6 110.9 92.5 113.3C91.5 113.9 90.3 114.2 89 114.2C83 114.2 75.5 109.3 68 101.9C71.5 98.1 75 93.7 78.4 88.9C84.2 88.4 89.7 87.5 94.9 86.4C95.5 88.7 95.9 90.9 96.3 93ZM105.3 77.4C103.3 78.2 101.1 78.9 98.9 79.5C97.3 74.5 95.3 69.2 92.9 63.9C95.3 58.6 97.4 53.4 98.9 48.4C112.7 52.4 121 58.4 121 64C121 68.7 115.2 73.7 105.3 77.4Z" fill="#F0F8FF" fill-opacity="1.000000" fill-rule="nonzero"/>
        </g>
    </g>
    <g id="arrow">
        <defs>
            <clipPath id="clip6_298">
                <rect id="svg" width="29.000000" height="29.000000" fill="white" fill-opacity="0"/>
            </clipPath>
        </defs>
        <g clip-path="url(#clip6_298)">
            <path id="path" d="M19.2587 7.95703L19.2304 7.95703C18.8344 7.56104 18.8344 6.93896 19.2304 6.54297C19.6264 6.14697 20.2486 6.14697 20.6446 6.54297L20.6446 6.57129L19.2587 7.95703ZM20.6446 22.4287L20.6446 22.457C20.2486 22.853 19.6264 22.853 19.2304 22.457C18.8344 22.061 18.8344 21.439 19.2304 21.043L19.2587 21.043L20.6446 22.4287Z" fill="#000000" fill-opacity="0" fill-rule="nonzero"/>
            <path id="path" d="M19.9375 7.25L27.1875 14.5L19.9375 21.75" stroke="#379687" stroke-opacity="1.000000" stroke-width="2.000000" stroke-linejoin="round" stroke-linecap="round"/>
            <path id="path" d="M1.8325 15.48L1.8125 15.5C1.2525 15.5 0.8125 15.0601 0.8125 14.5C0.8125 13.9399 1.2525 13.5 1.8125 13.5L1.8325 13.52L1.8325 15.48ZM27.1675 13.52L27.1875 13.5C27.7475 13.5 28.1875 13.9399 28.1875 14.5C28.1875 15.0601 27.7475 15.5 27.1875 15.5L27.1675 15.48L27.1675 13.52Z" fill="#000000" fill-opacity="0" fill-rule="nonzero"/>
            <path id="path" d="M1.8125 14.5L27.1875 14.5" stroke="#379687" stroke-opacity="1.000000" stroke-width="2.000000" stroke-linecap="round"/>
        </g>
    </g>
    <g id="tg">
        <defs>
            <clipPath id="clip6_524">
                <rect id="svg" width="34.000000" height="34.000000" fill="white" fill-opacity="0"/>
            </clipPath>
        </defs>
        <g clip-path="url(#clip6_524)">
            <path id="path" d="M32.7415 6.36719C33.1919 4.17163 31.0354 2.34717 28.9448 3.15503L3.31848 13.0562C0.983833 13.958 0.879807 17.2227 3.15228 18.2715L8.73298 20.8472L11.3878 30.1392C11.5257 30.6218 11.9087 30.9954 12.3946 31.1213C12.8805 31.2471 13.3968 31.1067 13.7517 30.7517L17.8412 26.6621L23.5697 30.9585C25.2326 32.2058 27.6276 31.2974 28.0453 29.2612L32.7415 6.36719ZM4.33961 15.699L29.966 5.79785L25.2697 28.6919L18.5583 23.6582C17.9943 23.2351 17.2051 23.2913 16.7065 23.7898L14.955 25.5415L15.4813 22.647L25.7933 12.335C26.2952 11.8333 26.3482 11.0374 25.9174 10.4734C25.4866 9.90942 24.705 9.75122 24.0888 10.1033L9.84753 18.241L4.33961 15.699ZM11.584 20.5122L12.443 23.5188L12.7728 21.7048C12.8244 21.4214 12.9611 21.1602 13.1649 20.9565L16.3097 17.8118L11.584 20.5122Z" fill="#FFFFFF" fill-opacity="1.000000" fill-rule="evenodd"/>
        </g>
    </g>
    <g id="burger">
        <rect  width="45" height="4" fill="#379687"/>
        <rect  y="14" width="45" height="4" fill="#379687"/>
        <rect  y="28" width="45" height="4" fill="#379687"/>
    </g>
    <g id="uikit">
        <path d="M23.594 4.391l-5.474 3.318 6.313 3.594v9.438l-8.484 4.719-8.344-4.719v-7.313l-5.474-2.818v13.391l13.625 8 14.115-8v-15.995zM21.057 3.073l-5.307-3.073-5.531 3.422 5.375 2.958z"/>
    </g>
    <g id="jq">
        <path display="inline" d="M499.161,364.63c0,0-63.554,171.386-282.354,131.488c-3.443-0.641-6.745-1.838-10.089-2.849   c-0.782-0.229-1.572-0.479-2.354-0.703c-3.285-1.022-6.537-2.07-9.769-3.197c-0.37-0.129-0.723-0.25-1.098-0.383   c-2.944-1.035-5.872-2.134-8.762-3.244c-0.757-0.295-1.51-0.582-2.263-0.89c-3.114-1.23-6.212-2.516-9.277-3.859   c-0.565-0.249-1.11-0.499-1.684-0.752c-2.683-1.193-5.332-2.429-7.959-3.685c-0.682-0.346-1.368-0.666-2.055-0.99   c-0.374-0.187-0.777-0.374-1.16-0.565c-1.696-0.848-3.352-1.729-5.023-2.604c-1.289-0.665-2.599-1.313-3.88-2   c-2.366-1.289-4.699-2.599-7.02-3.938c-0.861-0.491-1.73-0.965-2.583-1.46c-3.152-1.854-6.271-3.78-9.344-5.727   c-0.869-0.557-1.729-1.147-2.586-1.722c-2.004-1.297-4.009-2.595-5.972-3.95c-0.208-0.142-0.407-0.291-0.611-0.437   c-0.761-0.516-1.484-1.044-2.241-1.593c-2.071-1.439-4.121-2.911-6.15-4.408c-0.981-0.74-1.959-1.484-2.932-2.229   c-1.838-1.402-3.667-2.837-5.481-4.284c-0.902-0.723-1.817-1.438-2.719-2.17c-2.212-1.822-4.417-3.677-6.575-5.548   c-0.408-0.357-0.84-0.707-1.256-1.081c-0.042-0.017-0.071-0.05-0.117-0.088c-2.449-2.146-4.853-4.346-7.236-6.591   c-0.719-0.657-1.435-1.36-2.158-2.05c-1.78-1.71-3.543-3.432-5.277-5.178c-0.72-0.707-1.431-1.422-2.121-2.138   c-2.241-2.304-4.454-4.611-6.616-6.97c-0.079-0.107-0.158-0.17-0.253-0.274c-0.038-0.041-0.092-0.096-0.129-0.142   c-2.212-2.437-4.383-4.928-6.508-7.427c-0.595-0.703-1.193-1.422-1.78-2.133c-1.584-1.909-3.144-3.813-4.674-5.743   c-0.636-0.803-1.272-1.613-1.9-2.42c-1.717-2.217-3.414-4.45-5.057-6.721c-0.308-0.424-0.636-0.84-0.932-1.256   c-0.063-0.07-0.116-0.146-0.158-0.216c-1.904-2.633-3.742-5.315-5.547-8.001c-0.561-0.824-1.089-1.672-1.63-2.521   c-1.306-1.987-2.587-3.976-3.826-5.988c-0.648-1.031-1.264-2.066-1.888-3.103c-1.127-1.879-2.229-3.759-3.298-5.655   c-0.611-1.073-1.214-2.121-1.805-3.223c-0.329-0.582-0.686-1.182-1.006-1.792c-0.562-1.016-1.069-2.075-1.618-3.111   c-0.848-1.626-1.709-3.26-2.528-4.915c-34.557-69.094-40.196-153.694,5.048-218.723l35.314-44.789   c-39.843,77.007-21.936,170.778,27.908,238.76c1.8,2.475,3.643,4.916,5.526,7.356c0.583,0.736,1.168,1.477,1.751,2.184   c1.567,1.996,3.168,3.967,4.786,5.918c0.583,0.686,1.152,1.359,1.747,2.066c2.163,2.554,4.375,5.09,6.646,7.564   c0.108,0.12,0.212,0.229,0.316,0.345c2.146,2.342,4.333,4.653,6.558,6.933c0.69,0.698,1.393,1.389,2.096,2.088   c1.747,1.783,3.531,3.514,5.344,5.235c0.686,0.682,1.376,1.339,2.088,2.017c2.449,2.279,4.919,4.545,7.435,6.758   c0.262,0.229,0.532,0.44,0.773,0.652c2.329,2.025,4.687,3.997,7.074,5.96c0.832,0.678,1.68,1.355,2.528,2.029   c1.875,1.509,3.772,2.978,5.681,4.437c0.911,0.699,1.846,1.41,2.791,2.108c2.075,1.539,4.171,3.053,6.288,4.55   c0.719,0.486,1.418,1.015,2.146,1.505c2.188,1.514,4.417,2.986,6.654,4.425c0.84,0.558,1.672,1.14,2.52,1.681   c3.086,1.954,6.205,3.875,9.357,5.73c0.811,0.466,1.622,0.902,2.42,1.352c2.379,1.376,4.762,2.731,7.19,4.029   c1.314,0.731,2.666,1.393,3.996,2.096c1.988,1.023,3.976,2.063,5.988,3.044c0.761,0.374,1.501,0.724,2.246,1.077   c2.566,1.235,5.14,2.425,7.743,3.605c0.616,0.267,1.214,0.545,1.834,0.811c3.032,1.327,6.096,2.6,9.186,3.817   c0.794,0.316,1.589,0.62,2.387,0.937c2.811,1.089,5.643,2.146,8.508,3.156c0.445,0.158,0.89,0.32,1.322,0.478   c3.194,1.099,6.408,2.146,9.648,3.136c0.827,0.258,1.655,0.508,2.503,0.757c3.318,0.981,6.616,2.042,10.018,2.812   C351.039,452.521,445.783,434.173,499.161,364.63z M182.44,254.758c4.907,7.024,10.338,15.386,16.846,21.031   c2.354,2.598,4.824,5.13,7.34,7.621c0.632,0.648,1.285,1.272,1.938,1.908c2.437,2.371,4.932,4.704,7.494,6.97   c0.108,0.079,0.204,0.188,0.308,0.263c0.029,0.033,0.054,0.041,0.075,0.074c2.845,2.487,5.781,4.887,8.758,7.244   c0.662,0.508,1.318,1.036,1.988,1.552c2.99,2.291,6.039,4.545,9.166,6.69c0.096,0.066,0.17,0.134,0.266,0.2   c1.376,0.956,2.782,1.846,4.175,2.761c0.674,0.433,1.31,0.898,1.983,1.306c2.237,1.435,4.496,2.828,6.795,4.167   c0.325,0.2,0.641,0.366,0.961,0.553c1.975,1.14,3.992,2.267,6.005,3.356c0.698,0.391,1.414,0.74,2.129,1.114   c1.389,0.724,2.786,1.468,4.2,2.171c0.212,0.1,0.433,0.199,0.637,0.287c2.882,1.418,5.788,2.79,8.762,4.079   c0.632,0.283,1.289,0.532,1.934,0.799c2.375,1.006,4.77,1.992,7.178,2.915c1.022,0.387,2.059,0.757,3.073,1.127   c2.191,0.815,4.383,1.556,6.595,2.296c1.003,0.319,1.984,0.648,2.986,0.956c3.144,0.973,6.254,2.212,9.535,2.753   C472.501,366.942,511.5,236.873,511.5,236.873c-35.16,50.633-103.243,74.791-175.897,55.936c-3.223-0.849-6.403-1.776-9.56-2.77   c-0.974-0.292-1.922-0.607-2.883-0.928c-2.245-0.728-4.479-1.501-6.694-2.308c-1.011-0.37-2.025-0.74-3.02-1.123   c-2.425-0.932-4.824-1.896-7.198-2.902c-0.653-0.283-1.306-0.533-1.942-0.824c-2.981-1.299-5.917-2.663-8.812-4.094   c-1.493-0.729-2.953-1.499-4.425-2.254c-0.849-0.437-1.701-0.875-2.549-1.312c-1.88-1.021-3.751-2.08-5.594-3.154   c-0.437-0.252-0.894-0.491-1.339-0.755c-2.283-1.339-4.537-2.718-6.77-4.134c-0.687-0.438-1.352-0.915-2.038-1.366   c-1.477-0.954-2.944-1.921-4.392-2.902c-3.11-2.146-6.138-4.399-9.128-6.678c-0.69-0.543-1.376-1.073-2.059-1.616   c-31.796-25.111-57-59.423-68.994-98.33c-12.555-40.352-9.847-85.647,11.914-122.406l-26.735,37.738   c-32.715,47.085-30.939,110.113-5.419,159.91C172.252,238.95,177.063,247.046,182.44,254.758z M360.5,196.506   c1.393,0.52,2.782,0.981,4.191,1.458c0.616,0.189,1.231,0.401,1.851,0.584c1.988,0.626,3.963,1.352,6.018,1.738   c93.284,18.023,118.58-47.869,125.317-57.566c-22.165,31.91-59.405,39.57-105.111,28.481c-3.605-0.881-7.572-2.185-11.058-3.416   c-4.462-1.591-8.849-3.404-13.124-5.456c-8.121-3.899-15.848-8.629-23.025-14.045c-40.891-31.029-66.291-90.221-39.61-138.425   L291.51,29.76c-19.287,28.386-21.179,63.638-7.801,94.991C297.823,158.025,326.745,184.132,360.5,196.506z">
        </path>
        
    </g>

    </svg>
